Patient4_TMGait_0pt8_01_left_49_EMG.mot
version=1
nRows=37
nColumns=33
inDegrees=no
endheader
time	1LAddLong	2LGlutMax	3LGlutMed	4LIliopsoas	5LSemiMemb	6LBicFemLong	7LRecFem	8LVastMed	9LVastLat	10LGasMed	11LTibAnt	12lTibPost	13LPeroneusLong	14LSol	15LExtDigLong	16LFlexDigLong	17RAddLong	18RGlutMax	19RGlutMed	20RIliopsoas	21RSemiMemb	22RBicFemLong	23RRecFem	24RVastMed	25RVastLat	26RGasMed	27RTibAnt	28RTibPost	29RPeroneusLong	30RSol	31RExtDigLong	32RFlexDigLong
54.59	0.00824	0.93704	-0.006866	-0.001678	-0.016479	-0.078735	0.31525	0.004883	0.022278	-0.049744	0.096741	-0.011749	0.070343	0.063019	-0.21576	-0.023499	-0.026855	0.40543	0.4715	-0.033264	-0.011292	-0.11017	-0.45151	0.19592	0.33447	-0.005188	-0.23453	-0.002899	-0.077057	0.058746	-0.004578	-0.000458
54.591	0.005341	0.94421	-0.005798	0.014343	-0.015411	-0.084839	0.2739	0.010223	0.043488	-0.021667	-0.002594	-0.005341	0.017853	0.053406	-0.36255	-0.019073	-0.021667	0.42526	1.1418	0.000153	-0.023956	-0.045319	-0.1915	0.17487	0.26291	-0.013275	-0.11704	-0.006866	0.018158	0.1976	-0.00061	-0.005035
54.592	-0.003662	0.99564	-0.021057	0.007477	-0.024719	-0.079803	0.21378	0.010681	0.085602	0.006714	-0.00885	-0.00412	-0.016785	0.018768	-0.39261	-0.037689	-0.013123	0.37628	0.69748	-0.056458	-0.053406	-0.06958	-0.20981	0.13458	0.11719	-0.007782	-0.087891	-0.005035	0.49911	-0.16312	-0.001831	0.002441
54.593	-0.005493	0.98404	-0.018616	-0.005951	-0.0177	-0.091248	0.20615	0.009308	0.11536	0.011444	-0.025024	-0.001984	0.003357	0.015106	-0.15472	-0.021667	-0.014954	0.27039	-0.24216	-0.15427	-0.06134	-0.080719	-0.21652	0.15762	0.034332	-0.014496	-0.095367	0.001373	0.42679	-0.10651	-0.003357	0.006256
54.594	0.004883	0.98404	-0.035553	0.010986	-0.021057	-0.11047	0.20889	0.012207	0.14603	0.087585	-0.043182	-0.00351	-0.003967	0.003967	1.0013	-0.017395	-0.021973	0.24124	-0.22553	-0.09903	-0.072174	-0.096283	-0.17548	0.076904	-0.11765	-0.009003	-0.14938	0.006866	0.88425	-0.032959	-0.003662	0.007935
54.595	-0.000153	0.94544	-0.059967	0.022278	-0.025635	-0.11063	0.18585	0.016632	0.15976	0.063629	-0.11261	-0.00061	0.054932	-0.050964	-0.32654	-0.010071	0.013123	0.21515	-0.11856	-0.099792	-0.074005	-0.17822	-0.005951	-0.042572	-0.24048	-0.020905	-0.001984	-0.00473	-0.24628	-0.049896	-0.007782	0.00473
54.596	0.007172	0.98984	-0.044403	0.018768	-0.012817	-0.103	0.13458	0.019989	0.15823	-0.00824	-0.16068	0.00061	0.1442	-0.011597	0.05722	-0.015411	-0.005493	0.29297	0.35934	0.002289	-0.037689	0.005341	-0.2002	-0.11932	-0.19089	-0.042572	0.080719	-0.013275	-0.41626	0.053406	-0.001984	0.001373
54.597	-0.00061	1.0378	-0.062408	0.014191	-0.00412	-0.12863	0.121	0.009308	0.18295	-0.026855	0.022278	0.004272	0.10757	0.094299	0.077057	-0.010834	-0.020294	0.39261	0.25253	0.17654	-0.010986	0.01709	-0.26855	-0.019989	-0.013733	-0.046387	0.17685	-0.011749	-0.77759	0.24719	-0.006409	0.018463
54.598	0.003815	1.0361	-0.076904	0.007629	-0.022888	-0.098114	0.14862	0.014343	0.20538	-0.065155	0.036926	0.006561	0.056763	0.1207	-0.026245	-0.010681	-0.003967	0.34637	0.12054	0.16632	-0.002899	-0.44388	-0.14557	-0.000305	0.04303	-0.018311	0.2327	-0.013123	-0.69427	0.095825	-0.001831	0.005646
54.599	-0.003052	1.1015	-0.06073	0.001831	-0.010681	-0.088806	0.17578	0.011749	0.20874	-0.020752	-0.023651	0.001678	0.059357	0.027771	0.12878	-0.009003	0.000153	0.37293	0.56488	0.014801	-0.043793	-0.63263	0.007935	-0.01297	0.042419	0.020752	-0.01236	-0.016174	1.3676	-0.11215	0.007172	0.000763
54.6	-0.000763	1.1385	-0.053558	0.013428	-0.014191	-0.10742	0.17578	-0.00946	0.2124	0.042267	0.046387	0.013275	0.045471	-0.065155	-0.17334	-0.006409	0.004578	0.48248	0.34424	-0.036011	-0.068054	-0.38849	0.033569	-0.062866	-0.084076	0.003967	-0.20523	-0.032196	1.1182	-0.1329	-0.007019	0.006866
54.601	0.003052	1.1533	-0.046997	0.02594	-0.007935	-0.10223	0.13855	-0.000763	0.22995	0.064697	0.11429	0.00473	0.054016	-0.06424	-0.56473	-0.005493	0.010223	0.43884	-0.20279	0.048828	-0.069885	0.044403	-0.092926	-0.054932	-0.088043	0.00412	-0.18417	-0.054016	-0.45364	-0.10269	-0.004578	-0.006256
54.602	-0.004883	1.1679	-0.066681	0.031738	0.000916	-0.081024	0.10849	0.011292	0.22781	0.099945	0.11932	0.013275	0.061951	-0.12421	-0.22675	-0.005951	0.007019	0.4155	-0.41718	0.14572	-0.06134	0.40115	-0.16373	0.017242	-0.077209	-0.004883	0.080566	0.064087	-1.1411	-0.19562	-0.002747	-0.006561
54.603	-0.002136	1.1699	-0.071411	0.041809	-0.021057	-0.076294	0.075531	0.003357	0.22247	0.081787	0.06012	0.012665	0.043488	-0.16174	-0.037231	-0.006104	0.005341	0.30533	-0.37369	0.17883	-0.04837	0.47379	-0.16174	-0.019531	0.20981	-0.016479	0.11948	0.07782	0.089874	-0.14648	-0.00412	-0.011292
54.604	0	1.1334	-0.096436	0.044861	-0.009766	-0.083771	0.067749	0.001221	0.20874	0.049438	-0.058594	0.010986	0.050201	-0.10727	-0.036316	0.002136	0.010529	0.21927	-1.2889	0.058746	-0.056763	0.46066	0.1152	-0.11917	0.2594	-0.004883	0.22018	0.016937	-0.27496	-0.14801	-0.000916	-0.00824
54.605	0.005493	1.1717	-0.063629	0.006409	-0.030365	-0.097961	0.031433	0.001678	0.21301	0.030518	-0.058136	0.011444	0.0354	-0.096283	-0.10529	0	-0.009613	0.19699	-1.4822	-0.085297	-0.005493	0.56458	0.10422	-0.033569	0.21347	0.0177	0.18677	-0.002441	-0.95657	0.056915	-0.002136	-0.019073
54.606	0.003815	1.1893	-0.000916	-0.016785	-0.018616	-0.14496	0.016327	0.002289	0.20676	-0.001068	-0.042267	0.007629	0.040894	-0.12192	-0.22186	0.012817	-0.019836	0.31921	-0.35339	-0.19302	-0.005493	0.39459	0.15991	0.00946	0.16464	0.007172	-0.18646	-0.016785	0.047913	0.10605	-0.002899	-0.00946
54.607	0.006409	1.1168	0.001068	-0.007935	-0.020294	-0.1445	0.015106	0.013123	0.20691	0.020447	0.07431	0.009766	0.013428	-0.092621	-0.084381	0.00473	-0.009766	0.29846	0.13077	-0.1651	-0.048523	0.19058	0.26703	-0.072021	0.032959	-0.049286	-0.088196	-0.013885	0.49011	0.035706	-0.000458	-0.009766
54.608	0.00473	1.1346	-0.033264	-0.021667	-0.023346	-0.15686	0.014496	0.005188	0.19226	0.035248	0.17746	0.00824	-0.023499	-0.032654	0.061188	-0.001831	-0.00061	0.32227	0.40314	-0.1355	-0.047302	0.16495	0.089722	-0.092926	-0.010376	-0.10468	0.031586	-0.033112	0.67459	-0.058136	-0.004425	-0.006561
54.609	0.00351	1.1044	-0.018005	-0.01709	-0.009918	-0.12116	0.036926	0.008087	0.19424	0.036316	0.23041	0.013428	-0.030365	-0.007477	0.13458	0.015411	-0.018616	0.32089	0.050049	0.079498	-0.036163	0.073853	-0.21149	0.096588	-0.13825	-0.17883	-0.045471	-0.007782	0.7132	0.026398	-0.005188	-0.012817
54.61	0.002594	1.0657	-0.056	-0.01358	-0.007324	-0.11993	0.010681	0.007477	0.19226	0.006561	-0.082397	0.01236	0.011444	0.015106	0.15915	0.014954	-0.021362	0.30426	-0.47714	0.076752	-0.031433	0.014038	-0.19501	0.12039	-0.26611	-0.25925	-0.058136	-0.019531	-0.52338	0.19791	-0.000153	0.007019
54.611	0.002899	1.0426	-0.036163	-0.008087	-0.024109	-0.12955	-0.019379	0.002747	0.1915	-0.027161	-0.14786	0.009155	0.019989	0.063629	0.21072	0.020447	0.004272	0.30563	-0.34622	-0.056458	-0.021515	-0.054169	0.055237	0.05661	-0.54886	-0.09079	-0.060577	-0.008392	-0.39673	0.23804	-0.005798	-0.006104
54.612	0.002289	1.0008	-0.021973	0.006866	-0.024567	-0.13382	-0.0383	0.007324	0.18219	-0.02533	-0.041504	0.003967	0.016022	0.025482	0.24353	0.022125	0.01709	0.38666	-0.23453	-0.076599	-0.04715	-0.15182	0.10544	-0.099335	-0.54489	0.079498	-0.009766	0.015259	0.15747	-0.24292	-0.009613	-0.005341
54.613	-0.002899	0.97626	-0.036469	0.00473	-0.001068	-0.1326	-0.071716	0.00351	0.14954	-0.04303	-0.050507	0.012207	0.069427	-0.10147	0.15411	0.026703	0.013733	0.41946	0.20309	-0.066376	-0.041809	-0.18982	0.010529	-0.20126	-0.42206	0.075836	0.014648	0.001831	-0.38986	-0.62057	-0.003967	-0.007935
54.614	0.003662	0.92545	-0.033722	-0.004425	-0.009918	-0.10788	-0.10346	0.003204	0.15915	-0.040894	-0.062256	0.005493	0.084991	-0.026093	0.013733	0.028381	0.005798	0.42435	0.36377	-0.038757	-0.034027	-0.31616	0.050049	-0.13977	-0.30823	0.011902	-0.028381	-0.013123	-0.46524	-0.87601	-0.004272	-0.003662
54.615	0.003815	0.88028	-0.037231	0.005493	-0.031281	-0.072174	-0.13107	0.00061	0.1384	-0.030975	-0.052795	0.001831	0.061493	0.014038	-0.12268	0.036926	0.003052	0.45959	0.2536	-0.23544	-0.051727	-0.34943	0.041199	-0.094452	-0.18066	0.070496	-0.14023	-0.095367	0.29221	-0.52841	-0.002594	0.00473
54.616	0.006866	0.84137	-0.041351	-0.000305	-0.061493	-0.078583	-0.15778	0.007477	0.1413	-0.031128	-0.14069	0.003967	0.053406	-0.14252	0.030518	0.022278	-0.006409	0.54825	0.61554	-0.18616	-0.04776	-0.33081	0.021362	-0.18417	-0.097504	0.082397	-0.16968	0.066986	0.23727	0.50446	-0.001678	0.007629
54.617	0.004425	0.79178	-0.03952	-0.010071	-0.09964	-0.10925	-0.12131	0.001831	0.14145	-0.039978	-0.097656	0.007477	-0.010071	-0.25207	0.22339	0.004272	-0.010376	0.47562	0.36118	-0.006714	-0.0383	-0.27466	0.010834	-0.14297	0.007172	0.055237	-0.017242	0.067902	0.15518	0.68726	-0.005035	0.003815
54.618	0.011292	0.73318	-0.043945	-0.00412	-0.018005	-0.1358	-0.10239	-0.006256	0.13458	-0.045776	0.00946	-0.000153	-0.010986	-0.31769	0.34576	0.040588	-0.007629	0.44144	0.13992	0.15137	-0.036621	-0.242	0.088501	-0.1648	0.005493	0.043488	0.11231	0.000763	-0.27222	0.46188	-0.002747	0.000153
54.619	0.014343	0.69916	-0.045319	0.004272	0.049896	-0.15762	-0.080261	-0.000916	0.11795	-0.027618	0.10376	0.000153	-0.022888	-0.17609	0.26718	0.036163	-0.019531	0.41122	0.12756	0.29434	-0.034027	-0.15579	-0.1152	-0.17227	0.028381	0.043945	-0.07782	-0.016022	0.73105	0.30197	-0.003204	-0.007019
54.62	0.014191	0.62607	-0.058441	0.003204	-0.001831	-0.1619	-0.093231	-0.001221	0.11749	-0.045929	0.006561	0.003815	0.020905	0.086823	0.18829	0.018616	-0.018616	0.4216	0.6189	0.1181	-0.034485	-0.003052	-0.4631	-0.36087	-0.032806	0.046387	-0.13336	0.020752	0.88394	-0.016479	-0.005188	-0.011292
54.621	0.014343	0.61188	-0.079803	-0.002747	0.023346	-0.15945	-0.092926	0.001373	0.12238	-0.053101	0.081482	-0.005798	0.019836	0.22522	0.2272	0.029602	-0.002594	0.29297	0.086212	0.18768	-0.053558	0.062561	-0.50644	-0.56015	0.28503	0.06546	-0.11673	0.012512	0.38238	-0.096283	-0.004272	-0.001831
54.622	0.004425	0.57831	-0.044403	0.009613	0.018005	-0.13001	-0.074921	0.003662	0.12238	-0.050354	0.11856	-0.001831	0.034485	0.12833	-0.57053	0.036163	0.003662	0.25345	-0.2034	0.17349	-0.048523	0.31265	-0.27176	-0.23712	0.36789	0.057526	0.002747	-0.001678	0.1004	0.25559	-0.005798	-0.010529
54.623	0.006104	0.56595	0.001984	0.023804	-0.014648	-0.12634	-0.066376	0.003967	0.11841	-0.052643	-0.075531	0.000763	0.057068	0.025787	-0.63568	0.11353	0.021515	0.27527	-0.11856	0.10529	-0.05127	0.21835	0.045929	-0.094452	0.36758	0.01358	0.10651	-0.013428	0.36804	0.31082	-0.003967	-0.005341
54.624	-0.003204	0.54703	0.016479	0.014801	-0.041199	-0.10712	-0.059052	0.003662	0.10651	-0.058441	-0.025787	-0.011139	0.024567	0.009308	-0.31769	-0.036469	0.016937	0.30304	-0.28351	0.035706	-0.049744	0.10727	0.13397	-0.049896	0.28931	0.003967	0.1741	-0.009766	-1.7554	0.02533	-0.005341	-0.003052
54.625	0.006256	0.49133	-0.041199	-0.004883	-0.047607	-0.1181	-0.069275	0.002899	0.10971	-0.032959	0.070496	-0.00473	0.006409	0.041809	-0.20157	-0.076599	0.005951	0.23575	-0.43411	0.034027	-0.044556	0.065613	0.012817	0.022278	0.22186	-0.002136	0.094452	-0.012054	0.14481	0.036316	-0.007782	-0.007019
54.626	0.018921	0.43732	-0.051422	0.01297	-0.036011	-0.092621	-0.093079	0.008392	0.12741	-0.032501	0.068054	-0.012054	0.007782	0.006409	-0.069733	0.040283	-0.003052	0.20844	-0.081024	-0.005341	-0.02182	0.096741	-0.062561	0.32288	0.002747	0.013733	-0.006561	-0.016174	0.15717	-0.031281	-0.005493	-0.010071
